<!-- Based off https://github.com/n3r4zzurr0/svg-spinners/blob/main/svg-css/180-ring-with-bg.svg -->
<svg xmlns="http://www.w3.org/2000/svg" width="24" height="24" viewBox="0 0 24 24">
<style>
.__inner_spinner {
    transform-origin: center;
animation: __inner_spinner 0.75s infinite linear;
}

@keyframes __inner_spinner {
    100% {
transform: rotate(360deg);
    }
}
</style>
<path d="M12,1A11,11,0,1,0,23,12,11,11,0,0,0,12,1Zm0,19a8,8,0,1,1,8-8A8,8,0,0,1,12,20Z" opacity=".25" />
<path
d="M12,4a8,8,0,0,1,7.89,6.7A1.53,1.53,0,0,0,21.38,12h0a1.5,1.5,0,0,0,1.48-1.75,11,11,0,0,0-21.72,0A1.5,1.5,0,0,0,2.62,12h0a1.53,1.53,0,0,0,1.49-1.3A8,8,0,0,1,12,4Z"
class="__inner_spinner" />
</svg>
